<svg width="46" height="46" viewBox="0 0 46 46" fill="none" xmlns="http://www.w3.org/2000/svg">
<circle cx="23.3096" cy="23.3097" r="21.5" stroke="#07A0AB" stroke-width="2"/>
<path d="M34.1924 12.7232C28.7249 8.7821 23.2583 16.4469 17.7908 13.7812V13.2142C17.7908 12.5099 17.2194 11.9385 16.5152 11.9385C15.811 11.9385 15.2397 12.5099 15.2397 13.2142V35.1705C15.2397 35.8747 15.811 36.446 16.5152 36.446C17.2194 36.446 17.7908 35.8747 17.7908 35.1705V25.8689C22.9875 28.4017 28.1844 21.603 33.382 24.3086C33.6219 24.434 33.9102 24.4257 34.1418 24.2844C34.3735 24.1441 34.5147 23.8933 34.5147 23.6217C34.5147 20.1988 34.5147 16.7758 34.5147 13.3519C34.5147 13.1037 34.3941 12.8685 34.1924 12.7232Z" fill="#07A0AB"/>
</svg>
